{
  "accessors": [
    {
      "bufferView": 2,
      "componentType": 5126,
      "count": 1757,
      "max": [
        2.7649757862091064,
        2.7649757862091064,
        32.779411315917969
      ],
      "min": [
        -2.7649760246276855,
        -2.7649765014648438,
        -32.779411315917969
      ],
      "type": "VEC3"
    },
    {
      "bufferView": 2,
      "byteOffset": 21084,
      "componentType": 5126,
      "count": 1757,
      "max": [
        1,
        1,
        1
      ],
      "min": [
        -1,
        -1,
        -1
      ],
      "type": "VEC3"
    },
    {
      "bufferView": 3,
      "componentType": 5126,
      "count": 1757,
      "max": [
        1,
        1,
        0.99346691370010376,
        1
      ],
      "min": [
        -1,
        -1,
        -0.99915266036987305,
        1
      ],
      "type": "VEC4"
    },
    {
      "bufferView": 1,
      "componentType": 5126,
      "count": 1757,
      "max": [
        0.65625,
        1
      ],
      "min": [
        0.34374997019767761,
        -7.4505805969238281e-08
      ],
      "type": "VEC2"
    },
    {
      "bufferView": 0,
      "componentType": 5125,
      "count": 9840,
      "max": [
        1756
      ],
      "min": [
        0
      ],
      "type": "SCALAR"
    },
    {
      "bufferView": 2,
      "byteOffset": 42168,
      "componentType": 5126,
      "count": 1677,
      "max": [
        0.98472392559051514,
        0.998973548412323,
        0.98472398519515991
      ],
      "min": [
        -0.98472404479980469,
        -0.998973548412323,
        -0.98472422361373901
      ],
      "type": "VEC3"
    },
    {
      "bufferView": 2,
      "byteOffset": 62292,
      "componentType": 5126,
      "count": 1677,
      "max": [
        1,
        1,
        1
      ],
      "min": [
        -1,
        -1,
        -1
      ],
      "type": "VEC3"
    },
    {
      "bufferView": 3,
      "byteOffset": 28112,
      "componentType": 5126,
      "count": 1677,
      "max": [
        1,
        0.057188205420970917,
        1,
        1
      ],
      "min": [
        -1,
        -0.057187139987945557,
        -1,
        1
      ],
      "type": "VEC4"
    },
    {
      "bufferView": 1,
      "byteOffset": 14056,
      "componentType": 5126,
      "count": 1677,
      "max": [
        1.0000001192092896,
        1
      ],
      "min": [
        0,
        0
      ],
      "type": "VEC2"
    },
    {
      "bufferView": 0,
      "byteOffset": 39360,
      "componentType": 5125,
      "count": 9360,
      "max": [
        1676
      ],
      "min": [
        0
      ],
      "type": "SCALAR"
    },
    {
      "bufferView": 2,
      "byteOffset": 82416,
      "componentType": 5126,
      "count": 6262,
      "max": [
        14.654037475585938,
        14.654038429260254,
        25.810171127319336
      ],
      "min": [
        -14.65404224395752,
        -14.65404224395752,
        12.221083641052246
      ],
      "type": "VEC3"
    },
    {
      "bufferView": 2,
      "byteOffset": 157560,
      "componentType": 5126,
      "count": 6262,
      "max": [
        1,
        1,
        1
      ],
      "min": [
        -1,
        -1,
        -1
      ],
      "type": "VEC3"
    },
    {
      "bufferView": 3,
      "byteOffset": 54944,
      "componentType": 5126,
      "count": 6262,
      "max": [
        1,
        1,
        0.99996191263198853,
        1
      ],
      "min": [
        -1,
        -1,
        -0.99996191263198853,
        -1
      ],
      "type": "VEC4"
    },
    {
      "bufferView": 1,
      "byteOffset": 27472,
      "componentType": 5126,
      "count": 6262,
      "max": [
        0.65625,
        1
      ],
      "min": [
        0.34374997019767761,
        -7.4505805969238281e-08
      ],
      "type": "VEC2"
    },
    {
      "bufferView": 0,
      "byteOffset": 76800,
      "componentType": 5125,
      "count": 34500,
      "max": [
        6261
      ],
      "min": [
        0
      ],
      "type": "SCALAR"
    },
    {
      "bufferView": 2,
      "byteOffset": 232704,
      "componentType": 5126,
      "count": 6262,
      "max": [
        14.654037475585938,
        14.65403938293457,
        -11.584595680236816
      ],
      "min": [
        -14.65404224395752,
        -14.654045104980469,
        -25.173683166503906
      ],
      "type": "VEC3"
    },
    {
      "bufferView": 2,
      "byteOffset": 307848,
      "componentType": 5126,
      "count": 6262,
      "max": [
        1,
        1,
        1
      ],
      "min": [
        -1,
        -1,
        -1
      ],
      "type": "VEC3"
    },
    {
      "bufferView": 3,
      "byteOffset": 155136,
      "componentType": 5126,
      "count": 6262,
      "max": [
        1,
        1,
        0.99996185302734375,
        1
      ],
      "min": [
        -1,
        -1,
        -0.99996191263198853,
        -1
      ],
      "type": "VEC4"
    },
    {
      "bufferView": 1,
      "byteOffset": 77568,
      "componentType": 5126,
      "count": 6262,
      "max": [
        0.65625,
        1
      ],
      "min": [
        0.34374997019767761,
        -7.4505805969238281e-08
      ],
      "type": "VEC2"
    },
    {
      "bufferView": 0,
      "byteOffset": 214800,
      "componentType": 5125,
      "count": 34500,
      "max": [
        6261
      ],
      "min": [
        0
      ],
      "type": "SCALAR"
    }
  ],
  "asset": {
    "extras": {
      "author": "Anwar Ali (https://sketchfab.com/Anwarali)",
      "license": "CC-BY-4.0 (http://creativecommons.org/licenses/by/4.0/)",
      "source": "https://sketchfab.com/models/d9822cbffc4c47f89e2213543103e4a0",
      "title": "**FREE MODEL** Dumbbell"
    },
    "generator": "Sketchfab-3.39.1",
    "version": "2.0"
  },
  "bufferViews": [
    {
      "buffer": 0,
      "byteLength": 352800,
      "byteOffset": 0,
      "name": "floatBufferViews",
      "target": 34963
    },
    {
      "buffer": 0,
      "byteLength": 127664,
      "byteOffset": 352800,
      "byteStride": 8,
      "name": "floatBufferViews",
      "target": 34962
    },
    {
      "buffer": 0,
      "byteLength": 382992,
      "byteOffset": 480464,
      "byteStride": 12,
      "name": "floatBufferViews",
      "target": 34962
    },
    {
      "buffer": 0,
      "byteLength": 255328,
      "byteOffset": 863456,
      "byteStride": 16,
      "name": "floatBufferViews",
      "target": 34962
    }
  ],
  "buffers": [
    {
      "byteLength": 1118784,
      "uri": "scene.bin"
    }
  ],
  "materials": [
    {
      "doubleSided": true,
      "emissiveFactor": [
        0,
        0,
        0
      ],
      "name": "lambert1",
      "pbrMetallicRoughness": {
        "baseColorFactor": [
          0.43105093482717621,
          0.41314131285130801,
          0.64195884150000004,
          1
        ],
        "metallicFactor": 1,
        "roughnessFactor": 0.2665777439
      }
    }
  ],
  "meshes": [
    {
      "name": "pCylinder1_lambert1_0",
      "primitives": [
        {
          "attributes": {
            "NORMAL": 1,
            "POSITION": 0,
            "TANGENT": 2,
            "TEXCOORD_0": 3
          },
          "indices": 4,
          "material": 0,
          "mode": 4
        }
      ]
    },
    {
      "name": "pSphere1_lambert1_0",
      "primitives": [
        {
          "attributes": {
            "NORMAL": 6,
            "POSITION": 5,
            "TANGENT": 7,
            "TEXCOORD_0": 8
          },
          "indices": 9,
          "material": 0,
          "mode": 4
        }
      ]
    },
    {
      "name": "pCylinder7_lambert1_0",
      "primitives": [
        {
          "attributes": {
            "NORMAL": 11,
            "POSITION": 10,
            "TANGENT": 12,
            "TEXCOORD_0": 13
          },
          "indices": 14,
          "material": 0,
          "mode": 4
        }
      ]
    },
    {
      "name": "pCylinder8_lambert1_0",
      "primitives": [
        {
          "attributes": {
            "NORMAL": 16,
            "POSITION": 15,
            "TANGENT": 17,
            "TEXCOORD_0": 18
          },
          "indices": 19,
          "material": 0,
          "mode": 4
        }
      ]
    }
  ],
  "nodes": [
    {
      "children": [
        1
      ],
      "name": "RootNode (gltf orientation matrix)",
      "rotation": [
        -0.70710678118654746,
        -0,
        -0,
        0.70710678118654757
      ]
    },
    {
      "children": [
        2
      ],
      "name": "RootNode (model correction matrix)"
    },
    {
      "children": [
        3
      ],
      "matrix": [
        1,
        0,
        0,
        0,
        0,
        0,
        1,
        0,
        0,
        -1,
        0,
        0,
        0,
        0,
        0,
        1
      ],
      "name": "0ca0aeba074c40f7bccf0ca56c9e5c50.fbx"
    },
    {
      "children": [
        4,
        6,
        8,
        10
      ],
      "name": "RootNode"
    },
    {
      "children": [
        5
      ],
      "name": "pCylinder1"
    },
    {
      "mesh": 0,
      "name": "pCylinder1_lambert1_0"
    },
    {
      "children": [
        7
      ],
      "name": "pSphere1"
    },
    {
      "mesh": 1,
      "name": "pSphere1_lambert1_0"
    },
    {
      "children": [
        9
      ],
      "name": "pCylinder7"
    },
    {
      "mesh": 2,
      "name": "pCylinder7_lambert1_0"
    },
    {
      "children": [
        11
      ],
      "name": "pCylinder8"
    },
    {
      "mesh": 3,
      "name": "pCylinder8_lambert1_0"
    }
  ],
  "scene": 0,
  "scenes": [
    {
      "name": "OSG_Scene",
      "nodes": [
        0
      ]
    }
  ]
}

